inDegrees=no
num_controls=7
num_derivatives=13
num_iterations=43
num_multipliers=7
num_parameters=0
num_slacks=7
num_states=26
objective=0.426489
objective_accelerations=0.059370
objective_balance=0.001137
objective_effort=0.015563
objective_height=0.344463
objective_ligament=0.005956
solver_duration=635.347853
status=Solve_Succeeded
success=true
DataType=double
version=3
OpenSimVersion=4.5
endheader
time	/jointset/ground_pelvis/pelvis_tilt/value	/jointset/ground_pelvis/pelvis_tx/value	/jointset/ground_pelvis/pelvis_ty/value	/jointset/hip_l/hip_flexion_l/value	/jointset/hip_l/hip_adduction_l/value	/jointset/hip_l/hip_rotation_l/value	/jointset/back/lumbar_extension/value	/jointset/patellofemoral_l/patellar_flexion_l/value	/jointset/knee_l/knee_flexion_l/value	/jointset/knee_l/knee_adduction_l/value	/jointset/knee_l/knee_rotation_l/value	/jointset/ankle_l/ankle_angle_l/value	/jointset/subtalar_l/subtalar_angle_l/value	/jointset/ground_pelvis/pelvis_tilt/speed	/jointset/ground_pelvis/pelvis_tx/speed	/jointset/ground_pelvis/pelvis_ty/speed	/jointset/hip_l/hip_flexion_l/speed	/jointset/hip_l/hip_adduction_l/speed	/jointset/hip_l/hip_rotation_l/speed	/jointset/back/lumbar_extension/speed	/jointset/patellofemoral_l/patellar_flexion_l/speed	/jointset/knee_l/knee_flexion_l/speed	/jointset/knee_l/knee_adduction_l/speed	/jointset/knee_l/knee_rotation_l/speed	/jointset/ankle_l/ankle_angle_l/speed	/jointset/subtalar_l/subtalar_angle_l/speed	/forceset/tau_hip_flexion_l	/forceset/tau_hip_adduction_l	/forceset/tau_hip_rotation_l	/forceset/tau_knee_flexion_l	/forceset/tau_ankle_angle_l	/forceset/tau_subtalar_angle_l	/forceset/tau_lumbar_extension	lambda_cid13_p0	lambda_cid13_p1	lambda_cid13_p2	lambda_cid13_p3	lambda_cid13_p4	lambda_cid13_p5	lambda_cid14_p0	/jointset/ground_pelvis/pelvis_tilt/accel	/jointset/ground_pelvis/pelvis_tx/accel	/jointset/ground_pelvis/pelvis_ty/accel	/jointset/hip_l/hip_flexion_l/accel	/jointset/hip_l/hip_adduction_l/accel	/jointset/hip_l/hip_rotation_l/accel	/jointset/back/lumbar_extension/accel	/jointset/patellofemoral_l/patellar_flexion_l/accel	/jointset/knee_l/knee_flexion_l/accel	/jointset/knee_l/knee_adduction_l/accel	/jointset/knee_l/knee_rotation_l/accel	/jointset/ankle_l/ankle_angle_l/accel	/jointset/subtalar_l/subtalar_angle_l/accel	gamma_cid13_p0	gamma_cid13_p1	gamma_cid13_p2	gamma_cid13_p3	gamma_cid13_p4	gamma_cid13_p5	gamma_cid14_p0
1.5	-0.3557314627288964	0.05586434804089055	0.7882739024328186	1.021623774749182	-0.3578710879273795	-0.0517659199993268	-0.3273496637368753	0.8299335406908045	0.8299335406907419	-0.03003673331218155	-0.17295736485189	0.283975134748639	0.1591195971781778	0.5060556710540495	0.2729031469757549	0.5089964950959674	-2.363309811110595	-0.005786539602439468	-0.5983816783815692	0.6173129704101635	-2.241369267027648	-2.24136926702773	-0.330151350438836	0.02921601884047279	-0.5616671475884526	-0.2331179040193328	-0.1372320397058767	0.08301472040579043	-0.001702142408348619	-0.1209233247591424	-0.04035531380438686	-0.0158725938258554	0.1284724396190456	-38.59481390052662	14.37642032986436	-3.401449688607965	-0.09085289767769228	-427.7294202106196	-21.19768328348296	-9.737077675834621	0.6327605640079248	0.5279947254995309	-0.8020508655975717	-1.237719732526623	0.3092539208551374	-0.5206297800027385	1.559630143320062	-1.166246232902613	-1.166246232902642	-0.1371693368210421	0.3443038022146147	-0.6394830546944974	0.4084456629815341	6.464584817775943e-07	-5.455243433872839e-07	-7.825889576848294e-06	-4.478471668674015e-07	1.578896101686064e-06	1.827478199703546e-06	8.654083375516345e-07
1.51	-0.3506392954153595	0.0586193743812222	0.7933227569348577	0.9979303859690272	-0.3579160643830644	-0.05776860376545727	-0.3211005427424827	0.8074636846653048	0.8074636846651448	-0.03335443955935109	-0.1726465811924022	0.2783263829477691	0.1568051922891651	0.5122825166232871	0.2780520627579454	0.5006595868795228	-2.375015178002743	-0.00319265773605179	-0.6021207286441331	0.6324101360564739	-2.252268291260633	-2.252268291260696	-0.3333130643090899	0.03296295069597849	-0.5679798562160016	-0.2297059405036327	-0.1327505390286899	0.08165107675089724	-0.0007098493695464936	-0.1176123916887408	-0.04061113088733112	-0.01686590515775632	0.1247117397196426	-38.53372584090842	14.55150082357809	-3.148809270996863	0.2621635168289219	-424.3314936612288	-21.11199788417735	-10.67068337454756	0.6034084478907051	0.5007585823133682	-0.8664043891261025	-1.083942673183082	0.2380428156628357	-0.2944683711762671	1.469595913478751	-1.001855124141937	-1.001855124138912	-0.3944002245183555	0.391827928309615	-0.6116465821691103	0.3170476404507752	6.41135177685042e-07	-2.082428796687453e-07	-7.659063077872675e-06	-3.920868876344872e-07	1.623103417287566e-06	2.18396969346405e-06	8.606084485961268e-07
1.52	-0.3454877072672283	0.06142437359492264	0.7982848636368404	0.9741305440188268	-0.357934384520858	-0.06380746317857203	-0.3147034828639881	0.7848948134763597	0.7848948134760733	-0.03670150850776906	-0.1722979402041109	0.2726176076975461	0.1545268022242269	0.5179398379728829	0.2828977216495125	0.4916469350847528	-2.384600445119861	-0.0004552760243747341	-0.6056168077784145	0.6469007472304719	-2.261172299719436	-2.261172299719478	-0.336023890674973	0.03678748459512726	-0.5736718374589113	-0.225914939204471	-0.128269038351493	0.08028743309600699	0.0002824436689914582	-0.114301458618334	-0.04086694797027193	-0.01785921648964585	0.1209510398202487	-38.46788248355955	14.7242354453235	-2.894061534488568	0.5629439911105169	-420.854150220254	-21.14076940663547	-11.60131135092682	0.518855720079578	0.4673433473748554	-0.9371995812626626	-0.8136997775206239	0.3379538899130362	-0.47203555434617	1.438319248857562	-0.7672430780659913	-0.7672430780659913	-0.04699183594691813	0.3598242109432578	-0.5153375777666015	0.4842532196738508	6.308905616504126e-07	3.529146846073144e-07	-7.454778628766015e-06	-3.048251346403205e-07	1.648179878474747e-06	2.595931715228949e-06	8.748488693577534e-07
1.53	-0.3402824260953436	0.06427622591526881	0.8031536180904034	0.9502451734195227	-0.3579251907674041	-0.0698799274497576	-0.3081651895002051	0.7622464185939714	0.7622464185937308	-0.04007457919166199	-0.1719110106051631	0.266854655466209	0.1522873217820792	0.5230055505805008	0.2874118587126426	0.4820020820695731	-2.392117623576978	0.002268973324598167	-0.6086402435091114	0.6606051594465486	-2.26819995528702	-2.268199955287074	-0.3387156340749969	0.04072777857710691	-0.5788438895614777	-0.2219955272874883	-0.1234566602710877	0.07843802758803678	0.00141717157878018	-0.1118000268371344	-0.04051100125147056	-0.01903520379021601	0.1169244015254472	-38.24851315937212	14.99032548172312	-2.700921051280072	0.8680266598896652	-417.7292127378671	-21.1643367165386	-12.52750570595078	0.4838572738398761	0.4342924379413158	-0.9930781008385865	-0.6672322039968949	0.2368455401317859	-0.181133615158987	1.313587296033955	-0.6247041292231866	-0.6247041292249034	-0.3991103074669821	0.4292654502966495	-0.5068590558293449	0.3442214050555086	6.154170516773264e-07	1.151940605725738e-06	-7.210695107645126e-06	-1.840930657748233e-07	1.652929806846713e-06	3.066831172998518e-06	9.093196191938351e-07
1.54	-0.3350298021488315	0.06717138831667822	0.8079229340259758	0.9262953299708095	-0.3578893175039036	-0.07597535328482066	-0.3014944349966514	0.739536911689221	0.7395369116891723	-0.04347833625228363	-0.1714810513748559	0.2610422387079881	0.1500867227045703	0.5274083928976109	0.2915597378621609	0.4717592314866709	-2.397495015001666	0.004880625983288296	-0.6102091205489252	0.6733929751846736	-2.273394704179348	-2.273394704179413	-0.3421611660925071	0.04539341089794876	-0.5835647428371532	-0.218138666276708	-0.1186442821907482	0.07658862207994563	0.002551899489850908	-0.1092985950559783	-0.04015505453271988	-0.02021119109099668	0.1128977632306119	-38.02324590607415	15.25398323001705	-2.505787715479888	1.122486758959006	-414.5106837726048	-21.29883840833446	-13.44866659887968	0.3862816619779683	0.3940917646524812	-1.056799094807147	-0.3857423710346594	0.3154345518564191	-0.1811238161695737	1.254999953267202	-0.4006617430148056	-0.4006617430147615	-0.1977495594441492	0.5048918787157347	-0.4250978123884208	0.4717430384333698	4.023478514427738e-07	3.210229378151023e-06	-4.673782053491881e-06	1.949671554732431e-07	1.184058012326039e-06	3.137989524242918e-06	8.018675966633627e-07
1.55	-0.32973662856353	0.07010618293781813	0.8125868624536516	0.9023034156335846	-0.3578252898303097	-0.08209527812368828	-0.2946996387024248	0.7167859775634794	0.7167859775635206	-0.04690529099415065	-0.1710102457715875	0.2551862600865119	0.1479285720170149	0.531144496273	0.2953396496107049	0.4609358800152407	-2.40054119552246	0.007913339854904333	-0.6135762822885154	0.6854429058128646	-2.276430623421493	-2.276430623421528	-0.3433161822137173	0.0488394079703569	-0.587514926970782	-0.2134785279624007	-0.1143690940682982	0.07478942541908196	0.003631708333252752	-0.1064263304019734	-0.04042129727645209	-0.02146354051517864	0.1092969032620998	-38.02484923411772	15.57543617390838	-2.302632458524394	1.48092863072073	-411.6895082503623	-21.32586651353899	-14.36509615000022	0.3550002291240739	0.3612598887626413	-1.108768109561845	-0.2120778930756803	0.2940084164009822	-0.3843614110320984	1.161482940402151	-0.2009084545636534	-0.2009084545591699	-0.08585369752671497	0.2759401092850435	-0.3622432279632088	0.4633237264606601	-3.838594844084717e-08	6.719407957516745e-06	5.048693756767611e-07	8.716663349012097e-07	1.694916240377871e-07	2.748576600577909e-06	5.308958581453478e-07
1.56	-0.3244085488337158	0.07307704047820489	0.8171398243793629	0.8782914350910579	-0.3577315712956869	-0.0882428443915768	-0.2877880444373545	0.6940155139574086	0.6940155139574459	-0.05034609110925309	-0.1705026828999388	0.2492943267208731	0.1458170576123088	0.5343896218005695	0.2987723217115286	0.4495659310937813	-2.401508256062214	0.0108187981899833	-0.6157374063552309	0.696752569353338	-2.277300600253612	-2.277300600253616	-0.34493024069761	0.05274486455402955	-0.5907556916689352	-0.2088114097068418	-0.1100939059458049	0.07299022875827017	0.004711517175885247	-0.1035540657479424	-0.04068754002016026	-0.02271588993926265	0.1056960432936162	-38.02402982281586	15.89660907188613	-2.099597723152961	1.84265577155669	-408.818735265304	-21.32837162858338	-15.27779634345007	0.2880860924140573	0.3246438351084049	-1.166118584812989	0.03008162517340248	0.2899834445490581	0.06008371840538582	1.106946535723605	0.03252673899056556	0.03252673899056589	-0.2895580319806257	0.5967837809686519	-0.2832139252932575	0.4731390266837179	-2.204585263034114e-07	8.160525260915734e-06	2.564077943895085e-06	1.150704082521283e-06	-2.408356351571464e-07	2.630973952981582e-06	4.258402540068775e-07
1.57	-0.3190507461753356	0.07608039556071325	0.8215765097419854	0.8542801244490688	-0.3576101159349389	-0.09440259825579198	-0.2807675304357458	0.6712466265115211	0.6712466265116427	-0.053808755350961	-0.1699517050423537	0.2433730367068254	0.1437511339141013	0.5370481007212156	0.301827502248008	0.4376965775654626	-2.400373961394785	0.01348075217146114	-0.6162060433974901	0.7071859895099925	-2.276148431400462	-2.276148431400521	-0.3475229249442762	0.05741478265433428	-0.593405833670728	-0.2043397489884191	-0.1053793334265212	0.07095139273950239	0.005598255438162572	-0.1015665879941608	-0.04010945970951672	-0.02401373469937808	0.1017668845015472	-37.78299178291092	16.23167229055176	-1.940117383267348	2.085206064367456	-406.3773621497327	-21.435274996685	-16.1789355681906	0.2363251513964543	0.2854377070736625	-1.208467765406692	0.2121047212120009	0.2549336703060044	-0.09875421493002597	0.9869035368573083	0.2057131665850321	0.2057131665768731	-0.2312078976084714	0.3967176383216228	-0.2412088424614053	0.4382562934810257	-7.920457663965768e-08	7.016565969356332e-06	7.239829359255569e-07	9.326650403814926e-07	1.041360170145595e-07	2.853134150471104e-06	5.281798178428357e-07
